PathFileType	4	(X/Y/Z)	/Users/niels/Desktop/University/Third Semester/Perception and Action/Exam/Gymnastics Motion Tracking/Code for Gym Tracking/Analyzed Data/Webcam_Backflip/id11_1_baseline_Sports2D/id11_1_baseline_Sports2D_px_person00.trc
DataRate	CameraRate	NumFrames	NumMarkers	Units	OrigDataRate	OrigDataStartFrame	OrigNumFrames
29.714285714285715	29.714285714285715	12	22	m	29.714285714285715	78	105
Frame#	Time	Hip			RHip			RKnee			RAnkle			RBigToe			RSmallToe			RHeel			LHip			LKnee			LAnkle			LBigToe			LSmallToe			LHeel			Neck			Head			Nose			RShoulder			RElbow			RWrist			LShoulder			LElbow			LWrist		
		X1	Y1	Z1	X2	Y2	Z2	X3	Y3	Z3	X4	Y4	Z4	X5	Y5	Z5	X6	Y6	Z6	X7	Y7	Z7	X8	Y8	Z8	X9	Y9	Z9	X10	Y10	Z10	X11	Y11	Z11	X12	Y12	Z12	X13	Y13	Z13	X14	Y14	Z14	X15	Y15	Z15	X16	Y16	Z16	X17	Y17	Z17	X18	Y18	Z18	X19	Y19	Z19	X20	Y20	Z20	X21	Y21	Z21	X22	Y22	Z22
78	2.625	0.9071479805110985	-0.5895441681641838	0.0	0.8983231102354655	-0.5908648929477378	0.0	0.9127326947526344	-0.8000572092551647	0.0	0.8803150287310183	-1.0052693091550147	0.0	0.9715260475226208	-1.036192367314057	0.0	0.9518215514414521	-1.0448915295461818	0.0	0.8633138745257987	-1.035448602736871	0.0	0.9292614085746148	-0.5920321602747192	0.0	0.9264648466588703	-0.7939397769642478	0.0	0.8922200040095546	-0.9845345388151706	0.0	0.9723737818341974	-1.0102745792467294	0.0	0.9606263029572829	-1.0060906699261236	0.0	0.8651656307525514	-1.007930080993413	0.0	0.9293523028859431	-0.3023554727956675	0.0	0.9563862074164807	-0.17930055688767527	0.0	0.9664559676564939	-0.250093291393011	0.0	0.890287874559699	-0.34604732281468364	0.0	0.9807278166956913	-0.46035375735071193	0.0	1.1137658035829416	-0.4971490988319955	0.0	0.9491877316865728	-0.3469216008754995	0.0	1.0064214065936583	-0.455170644222057	0.0	1.1143757137899037	-0.48761921695399507	0.0
79	2.658653846153846	0.9108855856187891	-0.5892281287596645	0.0	0.9011480109286096	-0.5906092880758576	0.0	0.9219554297357391	-0.7986208603761032	0.0	0.8820528172201542	-1.0036648643885548	0.0	0.9723650652555953	-1.0351669057368036	0.0	0.9521626760427425	-1.0436788875221599	0.0	0.8639668752785272	-1.033375691091023	0.0	0.9327774256675511	-0.5917446384916748	0.0	0.9346140944625427	-0.7919879808378484	0.0	0.8938463993313125	-0.982400836405662	0.0	0.9738502210282091	-1.0092393220446667	0.0	0.9614475021841951	-1.004669639085059	0.0	0.8658279803643124	-1.0050353601079935	0.0	0.9282045637135292	-0.3036825578752967	0.0	0.9547214498936133	-0.1798915400108312	0.0	0.9656504290153084	-0.25101212841923426	0.0	0.8903581467361549	-0.3460500655887019	0.0	0.9839000971095743	-0.4553644529452198	0.0	1.1205298049247099	-0.47541246987219343	0.0	0.9480623993136212	-0.3467905694189118	0.0	1.0044294183999036	-0.452492324434797	0.0	1.1159352577511772	-0.47330417582867385	0.0
80	2.692307692307692	0.9158679640588318	-0.5894523708735798	0.0	0.9049066255859819	-0.5907614630660105	0.0	0.9329416858913918	-0.7972182125327713	0.0	0.8844483080171514	-1.0013606034598685	0.0	0.9732696812648933	-1.0344317549319113	0.0	0.9525105797625126	-1.0425795846813706	0.0	0.864778973021062	-1.0304693307854504	0.0	0.9371689323956873	-0.5920074679289385	0.0	0.9446781292082157	-0.7901654122917073	0.0	0.8960149115477909	-0.9802438059747769	0.0	0.975895335635776	-1.0088967158503184	0.0	0.9628510010685759	-1.003845284476336	0.0	0.8670801616099287	-1.0023172466721766	0.0	0.9268269285554102	-0.3057255378639078	0.0	0.9536301952393428	-0.18144916044997572	0.0	0.9653464365531794	-0.2528169914999876	0.0	0.8899520461370615	-0.34662517619839434	0.0	0.9830023180812731	-0.4528098722746466	0.0	1.1191186154180524	-0.45870015988640594	0.0	0.9465371902219722	-0.34739742325834305	0.0	1.0006180401067886	-0.4523394195020641	0.0	1.1119347071755288	-0.46412638314850724	0.0
81	2.7259615384615383	0.9216218685301153	-0.5900107281962537	0.0	0.9094796418112092	-0.5912247896020695	0.0	0.9450663248082085	-0.795910487055787	0.0	0.8873860910721174	-0.9983202086431174	0.0	0.9741238678163752	-1.0340934090741798	0.0	0.9528482744655503	-1.0417008519563604	0.0	0.8658449022121185	-1.0265763200573532	0.0	0.9421302974922647	-0.5925716181566969	0.0	0.9556599202406658	-0.788831418636369	0.0	0.8985046310028028	-0.9783020390795893	0.0	0.978271037721732	-1.0093745562944527	0.0	0.9646479816152459	-1.0039048417428025	0.0	0.8689691547753569	-0.9999200982117975	0.0	0.9251560148813881	-0.30847436786127874	0.0	0.9530989603653846	-0.18416337513571215	0.0	0.9654085808075934	-0.2557797390504622	0.0	0.888969674076226	-0.3480805683838721	0.0	0.9787031110062894	-0.453235633058005	0.0	1.111229078897753	-0.4479559733100935	0.0	0.9445071832034916	-0.34879213513520096	0.0	0.9951410116975786	-0.4544564288136329	0.0	1.1029301906523676	-0.4597636394282244	0.0
82	2.7596153846153846	0.9276479818151888	-0.5906701370280981	0.0	0.9147012394749888	-0.5917898341783384	0.0	0.9575572423967307	-0.7946470247523505	0.0	0.8906980582692432	-0.9948827335703166	0.0	0.9748698393001065	-1.0341715673012162	0.0	0.953163902499561	-1.0411403357165172	0.0	0.8672530222057789	-1.0218970951257176	0.0	0.9473974573283453	-0.5930940046396334	0.0	0.966410737817022	-0.7881588652141782	0.0	0.9010434564992853	-0.9769288094346035	0.0	0.9809187921716528	-1.0108980545068853	0.0	0.9669598552947742	-1.0051432183977116	0.0	0.8714527706263849	-0.9981492637142679	0.0	0.9232411955759097	-0.31170946833347624	0.0	0.953133969159342	-0.18796235476612172	0.0	0.9655979281164208	-0.259882707760218	0.0	0.8875298226541508	-0.350279747289555	0.0	0.9712139049924479	-0.45652795009628977	0.0	1.0984855951355617	-0.4434990406571566	0.0	0.9420431411667586	-0.35078510695462384	0.0	0.9881213911715535	-0.4581911608847677	0.0	1.089709336816301	-0.4594797169115852	0.0
83	2.793269230769231	0.9335441629919901	-0.5912173808697861	0.0	0.9204038736144723	-0.5921951579255395	0.0	0.969676968672928	-0.7932860536340972	0.0	0.8941956968081805	-0.9915499722857	0.0	0.9755314359582329	-1.0344723241533507	0.0	0.9535217727289097	-1.04082584356194	0.0	0.8690760763510608	-1.016972039072988	0.0	0.9527444532297831	-0.5932159379905425	0.0	0.9759710519907676	-0.7879998462296963	0.0	0.9034239857488615	-0.976358688787199	0.0	0.9838562725266216	-1.013533935497251	0.0	0.9700873760887907	-1.0076056430362637	0.0	0.8743506613450692	-0.997242731935812	0.0	0.9212702562281091	-0.3150286535124926	0.0	0.9537459278133775	-0.19248381587190688	0.0	0.965707330699072	-0.26473862549186067	0.0	0.8859057417175871	-0.35275498239517283	0.0	0.9605537378778579	-0.46181077198588605	0.0	1.082592575175289	-0.4450675163602358	0.0	0.9394004885055118	-0.35300468215942565	0.0	0.9799353141256744	-0.4626875733283705	0.0	1.0737393585544444	-0.46258275771530477	0.0
84	2.8269230769230766	0.9390639732019403	-0.5914197662030719	0.0	0.9263835146692129	-0.5922038573100918	0.0	0.9809106641648919	-0.7916346258022546	0.0	0.8977585046725344	-0.9886709921915138	0.0	0.9762387831449493	-1.0347869154625666	0.0	0.9540636796901452	-1.0406021159329393	0.0	0.8713901772595971	-1.0123918582262799	0.0	0.9580180742967944	-0.592632382229305	0.0	0.9838468082810657	-0.7879647518306205	0.0	0.9057060105529938	-0.9765035663987909	0.0	0.9870345080370208	-1.0170633208053546	0.0	0.9742109576854979	-1.01096498761082	0.0	0.8774578462716095	-0.9970950067098607	0.0	0.9194993526633344	-0.317977619546311	0.0	0.9548869308527369	-0.1971687280072387	0.0	0.9656575343839923	-0.26973141906662934	0.0	0.8843625352013872	-0.3549796050046712	0.0	0.9470244898631164	-0.46770954857488783	0.0	1.0652599564417786	-0.45189444941767465	0.0	0.936921955328175	-0.3550312924638177	0.0	0.9711474405691035	-0.46718828765513915	0.0	1.0569354949642271	-0.46863635323247577	0.0
85	2.860576923076923	0.9440985506078041	-0.5910180897797288	0.0	0.932354442684478	-0.5916222738549526	0.0	0.9910714178529287	-0.7895317849558604	0.0	0.9014335205247024	-0.9862937399580146	0.0	0.9771080985959147	-1.035114792116177	0.0	0.9548999036211452	-1.040395850774014	0.0	0.8742984915595502	-1.0084760362209433	0.0	0.9631285353228007	-0.5911912139888439	0.0	0.9900917287110623	-0.7876162935897468	0.0	0.9082659433306487	-0.9769636975745897	0.0	0.9902213108871634	-1.021017632333359	0.0	0.9790669172356826	-1.0146405659325444	0.0	0.880647062774841	-0.9972505841305556	0.0	0.9181372221517005	-0.320209060737002	0.0	0.9564332348480105	-0.2013824462244566	0.0	0.9655324890388041	-0.2742362558436941	0.0	0.8830694272744934	-0.3564745847915797	0.0	0.9312422652661054	-0.4728171445007001	0.0	1.0478202764138458	-0.46281187830912385	0.0	0.9348796157512587	-0.356515940668844	0.0	0.9623652650527017	-0.471154900948896	0.0	1.0410075536840775	-0.47730016316914425	0.0
86	2.894230769230769	0.9486247010233159	-0.5898084514561445	0.0	0.9380071199219712	-0.5902915397295354	0.0	1.0001579014080817	-0.7869583802201581	0.0	0.9053506742283541	-0.9842961716356979	0.0	0.9781115516692264	-1.0356031152657494	0.0	0.9560040355996855	-1.040215442661961	0.0	0.8778616809191999	-1.0052562170123804	0.0	0.9679931000620966	-0.5889383136608691	0.0	0.9950959860346669	-0.7866234055806595	0.0	0.9115380383998212	-0.9772697340032365	0.0	0.9930542076370483	-1.0248595512020886	0.0	0.9839414429230745	-1.0180583715138383	0.0	0.883881985034486	-0.9972048799891164	0.0	0.9172857518695602	-0.32149792994578646	0.0	0.9582112240887595	-0.20452176502110117	0.0	0.9655000712165056	-0.27771510682857103	0.0	0.8820513830646138	-0.3567976358661926	0.0	0.9137849157715998	-0.47600129201786934	0.0	1.0308679132542056	-0.4761875647572593	0.0	0.9333424803942585	-0.35719237428050715	0.0	0.9540865307201819	-0.474049558285708	0.0	1.0270366260555224	-0.4878476145198677	0.0
87	2.9278846153846154	0.9527331546886733	-0.5877523652019775	0.0	0.9431770757916804	-0.5881302904729794	0.0	1.008020377006999	-0.784097140712846	0.0	0.9094801423889783	-0.9826436980598268	0.0	0.9791414764844304	-1.0363959228721273	0.0	0.9572247425101611	-1.0401084215887608	0.0	0.8819605339973933	-1.0027151527982316	0.0	0.9725423255631599	-0.5860555826372457	0.0	0.9992658671697393	-0.7848475816254941	0.0	0.915635702460266	-0.9771418948115179	0.0	0.9952566795427776	-1.0281765723280027	0.0	0.9880963928976505	-1.0208459777176	0.0	0.8871165731088179	-0.996705641839227	0.0	0.9169309033670167	-0.3216640161568097	0.0	0.9600167970103836	-0.206138863527185	0.0	0.9656955938669242	-0.27976889881698147	0.0	0.8811561365356191	-0.3556095421052654	0.0	0.8950716579818804	-0.47652072509131826	0.0	1.0141469185577403	-0.4897440066539222	0.0	0.9322277008713661	-0.3568580748504451	0.0	0.9463890996336953	-0.4752395340483274	0.0	1.0152645630616512	-0.49880745944051125	0.0
88	2.9615384615384612	0.9566084283292137	-0.5850144028024581	0.0	0.9479424315751893	-0.5851979435921586	0.0	1.0142231604658454	-0.7812455916160542	0.0	0.9135453519512884	-0.9814970409889312	0.0	0.9801531780303415	-1.0375688717212754	0.0	0.9583815981514102	-1.0401711160241993	0.0	0.8862256226479441	-1.0009517991740773	0.0	0.9766900112324723	-0.5827533490245462	0.0	1.002790866406641	-0.7823657677726791	0.0	0.9201947273000565	-0.9765541595951006	0.0	0.996773475194807	-1.0306795198743295	0.0	0.9911178503051203	-1.022810499013429	0.0	0.8901023621976273	-0.9957680386606035	0.0	0.9169185774432576	-0.3206003042123675	0.0	0.9616680513830488	-0.20605383983415063	0.0	0.9662228634642299	-0.2802575813300912	0.0	0.880238134317523	-0.35281408995097885	0.0	0.8756377891540829	-0.4740724974457056	0.0	0.9970120147847359	-0.5007994218273031	0.0	0.9313677979915284	-0.35536890704454827	0.0	0.9387947472456754	-0.4742345212155244	0.0	1.0053007840436652	-0.5083133014406362	0.0
89	2.9951923076923075	0.9603481609139117	-0.5818800637730657	0.0	0.9524842407136845	-0.5817133740404646	0.0	1.018306770755494	-0.7786679567413983	0.0	0.9172028076152688	-0.9810776888709328	0.0	0.9811516284220549	-1.0390906383388077	0.0	0.9593071860337906	-1.0404975131691976	0.0	0.8901663477625624	-1.0001083738440018	0.0	0.9802379352827855	-0.5792345262948055	0.0	1.0055367978641057	-0.7794652864628611	0.0	0.9245884694728524	-0.9756402531369903	0.0	0.9976667354424205	-1.0321655035702755	0.0	0.9928627658145204	-1.0238673912657643	0.0	0.8924374838862617	-0.9945182945759672	0.0	0.9169954765401385	-0.3183522118033774	0.0	0.9630659332970818	-0.20438145741266556	0.0	0.9671568054639742	-0.279299361728697	0.0	0.8794224101893755	-0.3486242880787848	0.0	0.8565053144296392	-0.4687864184887632	0.0	0.9793452913033718	-0.5072134596328887	0.0	0.9305126090417066	-0.3526558651533382	0.0	0.9306816699005019	-0.47094456918282424	0.0	0.9967707155743825	-0.5149765232196385	0.0
